<?xml version="1.0" standalone="no"?>
<!DOCTYPE svg PUBLIC "-//W3C//DTD SVG 20010904//EN"
 "http://www.w3.org/TR/2001/REC-SVG-20010904/DTD/svg10.dtd">
<svg version="1.0" xmlns="http://www.w3.org/2000/svg"
 width="1024.000000pt" height="1024.000000pt" viewBox="0 0 1024.000000 1024.000000"
 preserveAspectRatio="xMidYMid meet">

<g transform="translate(0.000000,1024.000000) scale(0.100000,-0.100000)"
fill="#000000" stroke="none">
<path d="M3048 7089 c-10 -5 -22 -18 -28 -29 -8 -15 -50 -303 -87 -601 -10
-81 -18 -79 342 -79 175 0 325 4 339 10 32 12 36 26 80 350 39 287 42 330 24
348 -15 15 -644 17 -670 1z"/>
<path d="M2710 6633 c-242 -38 -570 -129 -785 -218 -402 -166 -716 -403 -828
-627 -55 -109 -70 -195 -63 -358 4 -74 9 -136 12 -139 3 -3 10 1 15 10 54 97
290 345 421 442 218 162 507 305 792 391 119 37 254 70 321 81 135 21 143 25
154 58 16 50 52 333 45 351 -6 16 -28 18 -84 9z"/>
<path d="M2863 6029 c-201 -14 -503 -78 -718 -152 -585 -200 -1054 -569 -1129
-887 -21 -89 -19 -340 3 -340 3 0 15 15 27 33 41 63 193 225 281 299 434 363
983 573 1618 618 97 7 155 15 163 24 7 7 24 82 38 167 13 85 26 168 29 186 11
66 -30 72 -312 52z"/>
<path d="M3843 5665 c-78 -21 -143 -58 -189 -107 -66 -68 -87 -119 -92 -220
-4 -80 -2 -93 22 -142 51 -104 128 -152 326 -206 237 -64 246 -68 279 -105 45
-52 44 -106 -4 -151 -41 -39 -88 -54 -166 -54 -122 0 -214 57 -238 148 l-11
38 -114 0 c-63 -1 -117 -4 -120 -7 -8 -8 21 -134 39 -169 24 -47 90 -115 139
-144 153 -90 383 -98 556 -20 79 35 161 122 185 195 26 77 17 201 -18 261 -59
101 -132 141 -378 204 -211 54 -249 77 -249 157 0 42 31 84 76 103 51 21 167
18 213 -6 49 -25 88 -71 97 -115 l6 -34 125 0 126 0 -6 55 c-16 154 -129 273
-303 318 -76 20 -230 20 -301 1z"/>
<path d="M6341 5664 c-161 -43 -266 -163 -278 -318 -8 -97 16 -167 80 -230 61
-61 124 -89 303 -136 65 -17 140 -38 165 -46 125 -40 145 -175 33 -229 -50
-24 -142 -31 -209 -16 -72 16 -130 67 -148 129 l-14 46 -118 2 -118 2 6 -57
c6 -71 37 -138 94 -201 130 -145 442 -182 647 -78 61 31 131 103 157 161 19
41 24 70 24 138 0 76 -3 92 -30 144 -53 104 -144 153 -393 215 -180 44 -232
76 -232 145 1 78 65 125 174 125 112 0 181 -44 203 -130 l9 -35 122 -3 c139
-3 132 -9 111 90 -23 108 -92 198 -188 247 -95 49 -286 66 -400 35z"/>
<path d="M7450 5664 c-191 -51 -326 -198 -376 -409 -22 -95 -22 -288 1 -374
68 -261 254 -404 525 -405 114 0 184 15 274 61 103 52 210 191 223 290 l5 38
-128 -2 -128 -2 -23 -44 c-29 -59 -72 -93 -140 -113 -154 -45 -295 38 -345
200 -16 52 -22 98 -22 171 -1 171 53 294 152 352 62 37 175 39 237 6 52 -27
100 -78 120 -125 l15 -38 126 0 127 0 -6 45 c-7 64 -60 166 -116 224 -114 117
-343 172 -521 125z"/>
<path d="M8613 5666 c-191 -47 -345 -215 -388 -424 -21 -104 -19 -261 4 -354
55 -215 201 -360 406 -403 307 -65 587 116 659 425 22 93 20 247 -4 343 -26
104 -70 184 -146 266 -70 75 -166 130 -262 150 -69 14 -203 13 -269 -3z m262
-234 c127 -65 198 -238 176 -427 -24 -206 -149 -328 -320 -312 -69 6 -124 32
-172 84 -76 80 -104 176 -97 335 4 91 9 113 36 169 17 35 39 73 49 84 27 31
84 71 118 84 46 17 163 8 210 -17z"/>
<path d="M4620 5075 l0 -585 115 0 115 0 2 401 3 402 26 -64 c89 -224 294
-716 302 -726 6 -8 35 -13 77 -13 45 0 70 4 73 13 17 42 306 746 313 762 6 12
10 -132 12 -378 l2 -398 120 2 120 2 0 583 0 584 -149 0 -148 0 -126 -297
c-69 -164 -144 -344 -167 -401 -24 -57 -46 -99 -50 -95 -9 9 -98 214 -245 561
l-99 232 -148 0 -148 0 0 -585z"/>
<path d="M2760 5344 c-637 -77 -1182 -307 -1537 -648 -171 -163 -283 -330
-323 -479 -25 -90 -41 -307 -23 -307 6 0 30 26 54 58 88 117 278 304 419 412
216 165 496 313 756 398 169 56 336 97 359 88 20 -7 19 -64 -4 -200 -13 -73
-25 -115 -38 -127 -12 -12 -65 -26 -158 -44 -361 -68 -682 -193 -936 -363
-276 -186 -436 -381 -493 -602 -18 -71 -34 -300 -21 -300 5 0 63 53 129 118
105 102 173 159 311 257 83 59 272 160 415 222 264 115 550 189 859 223 206
23 315 69 347 147 8 18 50 253 94 521 44 268 84 513 90 545 18 94 15 97 -93
96 -51 -1 -144 -7 -207 -15z"/>
</g>
</svg>
